# xmcd
#
# Track frame offsets:
#	150
#	15500
#	30640
#	46520
#	67240
#	81110
#	86295
#	102625
#	119500
#	145345
#
# Disc length: 1981 seconds
#
# Revision: 0
# Processed by: cddbd v1.4PL0 Copyright (c) Steve Scherf et al.
# Submitted via: dBpowerAMP V4.0
#
DISCID=7e07bb0a
DTITLE=Cow Patties - The Cow Patties
DYEAR=1995
DGENRE=Comedy
TTITLE0=Cow Patti
TTITLE1=Shero
TTITLE2=Cowgirls Put the "W" in Wrangler
TTITLE3=The "M" Word Scares the "F" Word Outta Me
TTITLE4=Why Don't You Waltz With Me Darlin'?
TTITLE5=The William Tell Overture
TTITLE6=Buffalo Gals
TTITLE7=Tumblin' Down
TTITLE8=Stand By Your Fan
TTITLE9=Bonus
EXTD=Comedy Country Album
EXTT0=
EXTT1=
EXTT2=
EXTT3=
EXTT4=
EXTT5=
EXTT6=
EXTT7=
EXTT8=
EXTT9=
PLAYORDER=
